<?xml version="1.0" encoding="UTF-8"?>
<svg xmlns="http://www.w3.org/2000/svg" xmlns:xlink="http://www.w3.org/1999/xlink" width="16px" height="16px" viewBox="0 0 16 16" version="1.1">
<g id="surface23930">
<path style=" stroke:none;fill-rule:nonzero;fill:rgb(14.117648%,12.156863%,19.215687%);fill-opacity:1;" d="M 4 0 C 2.910156 0 2 0.910156 2 2 L 2 14 C 2 15.089844 2.910156 16 4 16 L 12 16 C 13.089844 16 14 15.089844 14 14 L 14 2 C 14 0.910156 13.089844 0 12 0 Z M 4.5 2 L 11.5 2 C 11.777344 2 12 2.222656 12 2.5 L 12 3.5 C 12 3.777344 11.777344 4 11.5 4 L 4.5 4 C 4.222656 4 4 3.777344 4 3.5 L 4 2.5 C 4 2.222656 4.222656 2 4.5 2 Z M 5 6 C 5.550781 6 6 6.449219 6 7 C 6 7.550781 5.550781 8 5 8 C 4.449219 8 4 7.550781 4 7 C 4 6.449219 4.449219 6 5 6 Z M 8 6 C 8.550781 6 9 6.449219 9 7 C 9 7.550781 8.550781 8 8 8 C 7.449219 8 7 7.550781 7 7 C 7 6.449219 7.449219 6 8 6 Z M 11 6 C 11.550781 6 12 6.449219 12 7 C 12 7.550781 11.550781 8 11 8 C 10.449219 8 10 7.550781 10 7 C 10 6.449219 10.449219 6 11 6 Z M 5 9 C 5.550781 9 6 9.449219 6 10 C 6 10.550781 5.550781 11 5 11 C 4.449219 11 4 10.550781 4 10 C 4 9.449219 4.449219 9 5 9 Z M 8 9 C 8.550781 9 9 9.449219 9 10 C 9 10.550781 8.550781 11 8 11 C 7.449219 11 7 10.550781 7 10 C 7 9.449219 7.449219 9 8 9 Z M 11 9 C 11.550781 9 12 9.449219 12 10 L 12 13 C 12 13.550781 11.550781 14 11 14 C 10.449219 14 10 13.550781 10 13 L 10 10 C 10 9.449219 10.449219 9 11 9 Z M 5 12 C 5.550781 12 6 12.449219 6 13 C 6 13.550781 5.550781 14 5 14 C 4.449219 14 4 13.550781 4 13 C 4 12.449219 4.449219 12 5 12 Z M 8 12 C 8.550781 12 9 12.449219 9 13 C 9 13.550781 8.550781 14 8 14 C 7.449219 14 7 13.550781 7 13 C 7 12.449219 7.449219 12 8 12 Z M 8 12 "/>
</g>
</svg>
