<?xml version="1.0" encoding="UTF-8"?>
<svg xmlns="http://www.w3.org/2000/svg" xmlns:xlink="http://www.w3.org/1999/xlink" width="128px" height="128px" viewBox="0 0 128 128" version="1.1">
<defs>
<linearGradient id="linear0" gradientUnits="userSpaceOnUse" x1="29.185287" y1="203.999878" x2="445.185364" y2="203.999878" gradientTransform="matrix(0.211538,0,0,0.25,13.82619,57.000031)">
<stop offset="0" style="stop-color:rgb(23.921569%,21.960784%,27.450982%);stop-opacity:1;"/>
<stop offset="0.0454546" style="stop-color:rgb(60.392159%,60.000002%,58.823532%);stop-opacity:1;"/>
<stop offset="0.0909091" style="stop-color:rgb(36.862746%,36.078432%,39.215687%);stop-opacity:1;"/>
<stop offset="0.909091" style="stop-color:rgb(36.862746%,36.078432%,39.215687%);stop-opacity:1;"/>
<stop offset="0.953418" style="stop-color:rgb(60.392159%,60.000002%,58.823532%);stop-opacity:1;"/>
<stop offset="1" style="stop-color:rgb(23.921569%,21.960784%,27.450982%);stop-opacity:1;"/>
</linearGradient>
<filter id="alpha" filterUnits="objectBoundingBox" x="0%" y="0%" width="100%" height="100%">
  <feColorMatrix type="matrix" in="SourceGraphic" values="0 0 0 0 1 0 0 0 0 1 0 0 0 0 1 0 0 0 1 0"/>
</filter>
<mask id="mask0">
  <g filter="url(#alpha)">
<rect x="0" y="0" width="128" height="128" style="fill:rgb(0%,0%,0%);fill-opacity:0.7;stroke:none;"/>
  </g>
</mask>
<clipPath id="clip1">
  <rect x="0" y="0" width="128" height="128"/>
</clipPath>
<g id="surface6890" clip-path="url(#clip1)">
<path style=" stroke:none;fill-rule:nonzero;fill:rgb(56.078434%,94.117647%,64.313728%);fill-opacity:1;" d="M 36 20 L 92 20 C 94.210938 20 96 21.789062 96 24 L 96 44 C 96 46.210938 94.210938 48 92 48 L 36 48 C 33.789062 48 32 46.210938 32 44 L 32 24 C 32 21.789062 33.789062 20 36 20 Z M 36 20 "/>
</g>
<mask id="mask1">
  <g filter="url(#alpha)">
<rect x="0" y="0" width="128" height="128" style="fill:rgb(0%,0%,0%);fill-opacity:0.7;stroke:none;"/>
  </g>
</mask>
<clipPath id="clip2">
  <rect x="0" y="0" width="128" height="128"/>
</clipPath>
<g id="surface6893" clip-path="url(#clip2)">
<path style=" stroke:none;fill-rule:nonzero;fill:rgb(14.117648%,12.156863%,19.215687%);fill-opacity:1;" d="M 88 37.25 L 90 35.25 L 90 43 L 88 41 Z M 88 37.25 "/>
<path style=" stroke:none;fill-rule:nonzero;fill:rgb(14.117648%,12.156863%,19.215687%);fill-opacity:1;" d="M 88 29 L 90 27 L 90 34.75 L 88 32.75 Z M 88 29 "/>
<path style=" stroke:none;fill-rule:nonzero;fill:rgb(14.117648%,12.156863%,19.215687%);fill-opacity:1;" d="M 87.5 34 L 88.5 35 L 87.5 36 L 80.5 36 L 79.5 35 L 80.5 34 Z M 87.5 34 "/>
<path style=" stroke:none;fill-rule:nonzero;fill:rgb(14.117648%,12.156863%,19.215687%);fill-opacity:1;" d="M 80 29 L 78 27 L 78 34.75 L 80 32.75 Z M 80 29 "/>
<path style=" stroke:none;fill-rule:nonzero;fill:rgb(14.117648%,12.156863%,19.215687%);fill-opacity:1;" d="M 74 37.25 L 76 35.25 L 76 43 L 74 41 Z M 74 37.25 "/>
<path style=" stroke:none;fill-rule:nonzero;fill:rgb(14.117648%,12.156863%,19.215687%);fill-opacity:1;" d="M 74 29 L 76 27 L 76 34.75 L 74 32.75 Z M 74 29 "/>
<path style=" stroke:none;fill-rule:nonzero;fill:rgb(14.117648%,12.156863%,19.215687%);fill-opacity:1;" d="M 60 37.25 L 62 35.25 L 62 43 L 60 41 Z M 60 37.25 "/>
<path style=" stroke:none;fill-rule:nonzero;fill:rgb(14.117648%,12.156863%,19.215687%);fill-opacity:1;" d="M 60 29 L 62 27 L 62 34.75 L 60 32.75 Z M 60 29 "/>
<path style=" stroke:none;fill-rule:nonzero;fill:rgb(14.117648%,12.156863%,19.215687%);fill-opacity:1;" d="M 59 42 L 61 44 L 51 44 L 53 42 Z M 59 42 "/>
<path style=" stroke:none;fill-rule:nonzero;fill:rgb(14.117648%,12.156863%,19.215687%);fill-opacity:1;" d="M 59 28 L 61 26 L 51 26 L 53 28 Z M 59 28 "/>
<path style=" stroke:none;fill-rule:nonzero;fill:rgb(14.117648%,12.156863%,19.215687%);fill-opacity:1;" d="M 59.5 34 L 60.5 35 L 59.5 36 L 52.5 36 L 51.5 35 L 52.5 34 Z M 59.5 34 "/>
<path style=" stroke:none;fill-rule:nonzero;fill:rgb(14.117648%,12.156863%,19.215687%);fill-opacity:1;" d="M 64 42 L 66 42 L 66 44 L 64 44 Z M 64 42 "/>
</g>
<mask id="mask2">
  <g filter="url(#alpha)">
<rect x="0" y="0" width="128" height="128" style="fill:rgb(0%,0%,0%);fill-opacity:0.2;stroke:none;"/>
  </g>
</mask>
<clipPath id="clip3">
  <rect x="0" y="0" width="128" height="128"/>
</clipPath>
<g id="surface6896" clip-path="url(#clip3)">
<path style=" stroke:none;fill-rule:nonzero;fill:rgb(0%,0%,0%);fill-opacity:1;" d="M 45 72 L 45 74 L 35 74 L 35 72 Z M 45 72 "/>
<path style=" stroke:none;fill-rule:nonzero;fill:rgb(0%,0%,0%);fill-opacity:1;" d="M 41 78 L 39 78 L 39 68 L 41 68 Z M 41 78 "/>
<path style=" stroke:none;fill-rule:nonzero;fill:rgb(0%,0%,0%);fill-opacity:1;" d="M 66.242188 75.828125 L 64.828125 77.242188 L 57.757812 70.171875 L 59.171875 68.757812 Z M 66.242188 75.828125 "/>
<path style=" stroke:none;fill-rule:nonzero;fill:rgb(0%,0%,0%);fill-opacity:1;" d="M 59.171875 77.242188 L 57.757812 75.828125 L 64.828125 68.757812 L 66.242188 70.171875 Z M 59.171875 77.242188 "/>
<path style=" stroke:none;fill-rule:nonzero;fill:rgb(0%,0%,0%);fill-opacity:1;" d="M 67 96 L 67 98 L 57 98 L 57 96 Z M 67 96 "/>
<path style=" stroke:none;fill-rule:nonzero;fill:rgb(0%,0%,0%);fill-opacity:1;" d="M 63 102 L 61 102 L 61 100 L 63 100 Z M 63 102 "/>
<path style=" stroke:none;fill-rule:nonzero;fill:rgb(0%,0%,0%);fill-opacity:1;" d="M 63 94 L 61 94 L 61 92 L 63 92 Z M 63 94 "/>
<path style=" stroke:none;fill-rule:nonzero;fill:rgb(0%,0%,0%);fill-opacity:1;" d="M 45 96 L 45 98 L 35 98 L 35 96 Z M 45 96 "/>
<path style=" stroke:none;fill-rule:nonzero;fill:rgb(0%,0%,0%);fill-opacity:1;" d="M 80 82 L 80 84 L 92 84 L 92 82 Z M 80 86 L 80 88 L 92 88 L 92 86 Z M 80 86 "/>
</g>
<linearGradient id="linear1" gradientUnits="userSpaceOnUse" x1="29.185287" y1="203.999878" x2="445.185364" y2="203.999878" gradientTransform="matrix(0.211538,0,0,0.25,13.82619,57.000031)">
<stop offset="0" style="stop-color:rgb(23.921569%,21.960784%,27.450982%);stop-opacity:1;"/>
<stop offset="0.0454546" style="stop-color:rgb(60.392159%,60.000002%,58.823532%);stop-opacity:1;"/>
<stop offset="0.0909091" style="stop-color:rgb(36.862746%,36.078432%,39.215687%);stop-opacity:1;"/>
<stop offset="0.909091" style="stop-color:rgb(36.862746%,36.078432%,39.215687%);stop-opacity:1;"/>
<stop offset="0.953418" style="stop-color:rgb(60.392159%,60.000002%,58.823532%);stop-opacity:1;"/>
<stop offset="1" style="stop-color:rgb(23.921569%,21.960784%,27.450982%);stop-opacity:1;"/>
</linearGradient>
<mask id="mask4">
  <g filter="url(#alpha)">
<rect x="0" y="0" width="128" height="128" style="fill:rgb(0%,0%,0%);fill-opacity:0.7;stroke:none;"/>
  </g>
</mask>
<clipPath id="clip6">
  <rect x="0" y="0" width="128" height="128"/>
</clipPath>
<g id="surface6890" clip-path="url(#clip6)">
<path style=" stroke:none;fill-rule:nonzero;fill:rgb(56.078434%,94.117647%,64.313728%);fill-opacity:1;" d="M 36 20 L 92 20 C 94.210938 20 96 21.789062 96 24 L 96 44 C 96 46.210938 94.210938 48 92 48 L 36 48 C 33.789062 48 32 46.210938 32 44 L 32 24 C 32 21.789062 33.789062 20 36 20 Z M 36 20 "/>
</g>
<mask id="mask5">
  <g filter="url(#alpha)">
<rect x="0" y="0" width="128" height="128" style="fill:rgb(0%,0%,0%);fill-opacity:0.7;stroke:none;"/>
  </g>
</mask>
<clipPath id="clip7">
  <rect x="0" y="0" width="128" height="128"/>
</clipPath>
<g id="surface6893" clip-path="url(#clip7)">
<path style=" stroke:none;fill-rule:nonzero;fill:rgb(14.117648%,12.156863%,19.215687%);fill-opacity:1;" d="M 88 37.25 L 90 35.25 L 90 43 L 88 41 Z M 88 37.25 "/>
<path style=" stroke:none;fill-rule:nonzero;fill:rgb(14.117648%,12.156863%,19.215687%);fill-opacity:1;" d="M 88 29 L 90 27 L 90 34.75 L 88 32.75 Z M 88 29 "/>
<path style=" stroke:none;fill-rule:nonzero;fill:rgb(14.117648%,12.156863%,19.215687%);fill-opacity:1;" d="M 87.5 34 L 88.5 35 L 87.5 36 L 80.5 36 L 79.5 35 L 80.5 34 Z M 87.5 34 "/>
<path style=" stroke:none;fill-rule:nonzero;fill:rgb(14.117648%,12.156863%,19.215687%);fill-opacity:1;" d="M 80 29 L 78 27 L 78 34.75 L 80 32.75 Z M 80 29 "/>
<path style=" stroke:none;fill-rule:nonzero;fill:rgb(14.117648%,12.156863%,19.215687%);fill-opacity:1;" d="M 74 37.25 L 76 35.25 L 76 43 L 74 41 Z M 74 37.25 "/>
<path style=" stroke:none;fill-rule:nonzero;fill:rgb(14.117648%,12.156863%,19.215687%);fill-opacity:1;" d="M 74 29 L 76 27 L 76 34.75 L 74 32.75 Z M 74 29 "/>
<path style=" stroke:none;fill-rule:nonzero;fill:rgb(14.117648%,12.156863%,19.215687%);fill-opacity:1;" d="M 60 37.25 L 62 35.25 L 62 43 L 60 41 Z M 60 37.25 "/>
<path style=" stroke:none;fill-rule:nonzero;fill:rgb(14.117648%,12.156863%,19.215687%);fill-opacity:1;" d="M 60 29 L 62 27 L 62 34.75 L 60 32.75 Z M 60 29 "/>
<path style=" stroke:none;fill-rule:nonzero;fill:rgb(14.117648%,12.156863%,19.215687%);fill-opacity:1;" d="M 59 42 L 61 44 L 51 44 L 53 42 Z M 59 42 "/>
<path style=" stroke:none;fill-rule:nonzero;fill:rgb(14.117648%,12.156863%,19.215687%);fill-opacity:1;" d="M 59 28 L 61 26 L 51 26 L 53 28 Z M 59 28 "/>
<path style=" stroke:none;fill-rule:nonzero;fill:rgb(14.117648%,12.156863%,19.215687%);fill-opacity:1;" d="M 59.5 34 L 60.5 35 L 59.5 36 L 52.5 36 L 51.5 35 L 52.5 34 Z M 59.5 34 "/>
<path style=" stroke:none;fill-rule:nonzero;fill:rgb(14.117648%,12.156863%,19.215687%);fill-opacity:1;" d="M 64 42 L 66 42 L 66 44 L 64 44 Z M 64 42 "/>
</g>
<mask id="mask6">
  <g filter="url(#alpha)">
<rect x="0" y="0" width="128" height="128" style="fill:rgb(0%,0%,0%);fill-opacity:0.2;stroke:none;"/>
  </g>
</mask>
<clipPath id="clip8">
  <rect x="0" y="0" width="128" height="128"/>
</clipPath>
<g id="surface6896" clip-path="url(#clip8)">
<path style=" stroke:none;fill-rule:nonzero;fill:rgb(0%,0%,0%);fill-opacity:1;" d="M 45 72 L 45 74 L 35 74 L 35 72 Z M 45 72 "/>
<path style=" stroke:none;fill-rule:nonzero;fill:rgb(0%,0%,0%);fill-opacity:1;" d="M 41 78 L 39 78 L 39 68 L 41 68 Z M 41 78 "/>
<path style=" stroke:none;fill-rule:nonzero;fill:rgb(0%,0%,0%);fill-opacity:1;" d="M 66.242188 75.828125 L 64.828125 77.242188 L 57.757812 70.171875 L 59.171875 68.757812 Z M 66.242188 75.828125 "/>
<path style=" stroke:none;fill-rule:nonzero;fill:rgb(0%,0%,0%);fill-opacity:1;" d="M 59.171875 77.242188 L 57.757812 75.828125 L 64.828125 68.757812 L 66.242188 70.171875 Z M 59.171875 77.242188 "/>
<path style=" stroke:none;fill-rule:nonzero;fill:rgb(0%,0%,0%);fill-opacity:1;" d="M 67 96 L 67 98 L 57 98 L 57 96 Z M 67 96 "/>
<path style=" stroke:none;fill-rule:nonzero;fill:rgb(0%,0%,0%);fill-opacity:1;" d="M 63 102 L 61 102 L 61 100 L 63 100 Z M 63 102 "/>
<path style=" stroke:none;fill-rule:nonzero;fill:rgb(0%,0%,0%);fill-opacity:1;" d="M 63 94 L 61 94 L 61 92 L 63 92 Z M 63 94 "/>
<path style=" stroke:none;fill-rule:nonzero;fill:rgb(0%,0%,0%);fill-opacity:1;" d="M 45 96 L 45 98 L 35 98 L 35 96 Z M 45 96 "/>
<path style=" stroke:none;fill-rule:nonzero;fill:rgb(0%,0%,0%);fill-opacity:1;" d="M 80 82 L 80 84 L 92 84 L 92 82 Z M 80 86 L 80 88 L 92 88 L 92 86 Z M 80 86 "/>
</g>
<clipPath id="clip5">
  <rect x="0" y="0" width="128" height="128"/>
</clipPath>
<g id="surface6911" clip-path="url(#clip5)">
<path style=" stroke:none;fill-rule:nonzero;fill:url(#linear1);" d="M 28 36 L 100 36 C 104.417969 36 108 39.582031 108 44 L 108 112 C 108 116.417969 104.417969 120 100 120 L 28 120 C 23.582031 120 20 116.417969 20 112 L 20 44 C 20 39.582031 23.582031 36 28 36 Z M 28 36 "/>
<path style=" stroke:none;fill-rule:nonzero;fill:rgb(46.666667%,46.27451%,48.235294%);fill-opacity:1;" d="M 28 8 L 100 8 C 104.417969 8 108 11.582031 108 16 L 108 108 C 108 112.417969 104.417969 116 100 116 L 28 116 C 23.582031 116 20 112.417969 20 108 L 20 16 C 20 11.582031 23.582031 8 28 8 Z M 28 8 "/>
<path style=" stroke:none;fill-rule:nonzero;fill:rgb(23.921569%,21.960784%,27.450982%);fill-opacity:1;" d="M 24 29 L 104 29 L 104 112 L 24 112 Z M 24 29 "/>
<path style=" stroke:none;fill-rule:nonzero;fill:rgb(14.117648%,12.156863%,19.215687%);fill-opacity:1;" d="M 31.980469 14 C 27.546875 14 23.976562 17.566406 23.980469 22 L 24 56 L 104 56 L 103.980469 22 C 103.976562 17.566406 100.414062 14 95.980469 14 Z M 31.980469 14 "/>
<path style=" stroke:none;fill-rule:nonzero;fill:rgb(14.117648%,12.156863%,19.215687%);fill-opacity:1;" d="M 28 12 L 100 12 C 102.210938 12 104 13.789062 104 16 L 104 34 C 104 36.210938 102.210938 38 100 38 L 28 38 C 25.789062 38 24 36.210938 24 34 L 24 16 C 24 13.789062 25.789062 12 28 12 Z M 28 12 "/>
<use xlink:href="#surface6890" mask="url(#mask4)"/>
<use xlink:href="#surface6893" mask="url(#mask5)"/>
<path style=" stroke:none;fill-rule:nonzero;fill:rgb(14.117648%,12.156863%,19.215687%);fill-opacity:1;" d="M 40 64 C 44.96875 64 49 68.03125 49 73 C 49 77.96875 44.96875 82 40 82 C 35.03125 82 31 77.96875 31 73 C 31 68.03125 35.03125 64 40 64 Z M 40 64 "/>
<path style=" stroke:none;fill-rule:nonzero;fill:rgb(60.392159%,60.000002%,58.823532%);fill-opacity:1;" d="M 40 62 C 44.96875 62 49 66.03125 49 71 C 49 75.96875 44.96875 80 40 80 C 35.03125 80 31 75.96875 31 71 C 31 66.03125 35.03125 62 40 62 Z M 40 62 "/>
<path style=" stroke:none;fill-rule:nonzero;fill:rgb(14.117648%,12.156863%,19.215687%);fill-opacity:1;" d="M 62 64 C 66.96875 64 71 68.03125 71 73 C 71 77.96875 66.96875 82 62 82 C 57.03125 82 53 77.96875 53 73 C 53 68.03125 57.03125 64 62 64 Z M 62 64 "/>
<path style=" stroke:none;fill-rule:nonzero;fill:rgb(60.392159%,60.000002%,58.823532%);fill-opacity:1;" d="M 62 62 C 66.96875 62 71 66.03125 71 71 C 71 75.96875 66.96875 80 62 80 C 57.03125 80 53 75.96875 53 71 C 53 66.03125 57.03125 62 62 62 Z M 62 62 "/>
<path style=" stroke:none;fill-rule:nonzero;fill:rgb(14.117648%,12.156863%,19.215687%);fill-opacity:1;" d="M 40 88 C 44.96875 88 49 92.03125 49 97 C 49 101.96875 44.96875 106 40 106 C 35.03125 106 31 101.96875 31 97 C 31 92.03125 35.03125 88 40 88 Z M 40 88 "/>
<path style=" stroke:none;fill-rule:nonzero;fill:rgb(60.392159%,60.000002%,58.823532%);fill-opacity:1;" d="M 40 86 C 44.96875 86 49 90.03125 49 95 C 49 99.96875 44.96875 104 40 104 C 35.03125 104 31 99.96875 31 95 C 31 90.03125 35.03125 86 40 86 Z M 40 86 "/>
<path style=" stroke:none;fill-rule:nonzero;fill:rgb(14.117648%,12.156863%,19.215687%);fill-opacity:1;" d="M 62 88 C 66.96875 88 71 92.03125 71 97 C 71 101.96875 66.96875 106 62 106 C 57.03125 106 53 101.96875 53 97 C 53 92.03125 57.03125 88 62 88 Z M 62 88 "/>
<path style=" stroke:none;fill-rule:nonzero;fill:rgb(60.392159%,60.000002%,58.823532%);fill-opacity:1;" d="M 62 86 C 66.96875 86 71 90.03125 71 95 C 71 99.96875 66.96875 104 62 104 C 57.03125 104 53 99.96875 53 95 C 53 90.03125 57.03125 86 62 86 Z M 62 86 "/>
<path style=" stroke:none;fill-rule:nonzero;fill:rgb(14.117648%,12.156863%,19.215687%);fill-opacity:1;" d="M 79 88 L 93 88 C 94.65625 88 96 89.34375 96 91 L 96 103 C 96 104.65625 94.65625 106 93 106 L 79 106 C 77.34375 106 76 104.65625 76 103 L 76 91 C 76 89.34375 77.34375 88 79 88 Z M 79 88 "/>
<path style=" stroke:none;fill-rule:nonzero;fill:rgb(100%,47.058824%,0%);fill-opacity:1;" d="M 79 62 L 93 62 C 94.65625 62 96 63.34375 96 65 L 96 101 C 96 102.65625 94.65625 104 93 104 L 79 104 C 77.34375 104 76 102.65625 76 101 L 76 65 C 76 63.34375 77.34375 62 79 62 Z M 79 62 "/>
<use xlink:href="#surface6896" mask="url(#mask6)"/>
<path style=" stroke:none;fill-rule:nonzero;fill:rgb(100%,100%,100%);fill-opacity:1;" d="M 45 70 L 45 72 L 35 72 L 35 70 Z M 45 70 "/>
<path style=" stroke:none;fill-rule:nonzero;fill:rgb(100%,100%,100%);fill-opacity:1;" d="M 41 76 L 39 76 L 39 66 L 41 66 Z M 41 76 "/>
<path style=" stroke:none;fill-rule:nonzero;fill:rgb(100%,100%,100%);fill-opacity:1;" d="M 66.242188 73.828125 L 64.828125 75.242188 L 57.757812 68.171875 L 59.171875 66.757812 Z M 66.242188 73.828125 "/>
<path style=" stroke:none;fill-rule:nonzero;fill:rgb(100%,100%,100%);fill-opacity:1;" d="M 59.171875 75.242188 L 57.757812 73.828125 L 64.828125 66.757812 L 66.242188 68.171875 Z M 59.171875 75.242188 "/>
<path style=" stroke:none;fill-rule:nonzero;fill:rgb(100%,100%,100%);fill-opacity:1;" d="M 67 94 L 67 96 L 57 96 L 57 94 Z M 67 94 "/>
<path style=" stroke:none;fill-rule:nonzero;fill:rgb(100%,100%,100%);fill-opacity:1;" d="M 63 100 L 61 100 L 61 98 L 63 98 Z M 63 100 "/>
<path style=" stroke:none;fill-rule:nonzero;fill:rgb(100%,100%,100%);fill-opacity:1;" d="M 63 92 L 61 92 L 61 90 L 63 90 Z M 63 92 "/>
<path style=" stroke:none;fill-rule:nonzero;fill:rgb(100%,100%,100%);fill-opacity:1;" d="M 45 94 L 45 96 L 35 96 L 35 94 Z M 45 94 "/>
<path style=" stroke:none;fill-rule:nonzero;fill:rgb(100%,100%,100%);fill-opacity:1;" d="M 80 80 L 80 82 L 92 82 L 92 80 Z M 80 84 L 80 86 L 92 86 L 92 84 Z M 80 84 "/>
</g>
<clipPath id="clip4">
  <rect x="0" y="0" width="128" height="128"/>
</clipPath>
<g id="surface6914" clip-path="url(#clip4)" filter="url(#alpha)">
<use xlink:href="#surface6911"/>
</g>
<mask id="mask3">
<use xlink:href="#surface6914"/>
</mask>
<mask id="mask7">
  <g filter="url(#alpha)">
<rect x="0" y="0" width="128" height="128" style="fill:rgb(0%,0%,0%);fill-opacity:0.8;stroke:none;"/>
  </g>
</mask>
<linearGradient id="linear2" gradientUnits="userSpaceOnUse" x1="300" y1="235" x2="428" y2="235" gradientTransform="matrix(0.000000000000000023,0.37,-0.98462,0.00000000000000006,295.38501,-30.360001)">
<stop offset="0" style="stop-color:rgb(97.647059%,94.117647%,41.960785%);stop-opacity:1;"/>
<stop offset="1" style="stop-color:rgb(96.078432%,76.078433%,6.666667%);stop-opacity:1;"/>
</linearGradient>
<clipPath id="clip10">
  <rect x="0" y="0" width="128" height="128"/>
</clipPath>
<g id="surface6908" clip-path="url(#clip10)">
<path style=" stroke:none;fill-rule:nonzero;fill:url(#linear2);" d="M 128 80.640625 L 128 128 L 0 128 L 0 80.640625 Z M 128 80.640625 "/>
<path style=" stroke:none;fill-rule:nonzero;fill:rgb(0%,0%,0%);fill-opacity:1;" d="M 13.308594 80.640625 L 60.664062 128 L 81.878906 128 L 34.519531 80.640625 Z M 55.730469 80.640625 L 103.09375 128 L 124.308594 128 L 76.945312 80.640625 Z M 98.160156 80.640625 L 128 110.480469 L 128 89.269531 L 119.371094 80.640625 Z M 0 88.546875 L 0 109.761719 L 18.238281 128 L 39.453125 128 Z M 0 88.546875 "/>
</g>
<clipPath id="clip9">
  <rect x="0" y="0" width="128" height="128"/>
</clipPath>
<g id="surface6913" clip-path="url(#clip9)">
<use xlink:href="#surface6908" mask="url(#mask7)"/>
</g>
</defs>
<g id="surface6836">
<path style=" stroke:none;fill-rule:nonzero;fill:url(#linear0);" d="M 28 36 L 100 36 C 104.417969 36 108 39.582031 108 44 L 108 112 C 108 116.417969 104.417969 120 100 120 L 28 120 C 23.582031 120 20 116.417969 20 112 L 20 44 C 20 39.582031 23.582031 36 28 36 Z M 28 36 "/>
<path style=" stroke:none;fill-rule:nonzero;fill:rgb(46.666667%,46.27451%,48.235294%);fill-opacity:1;" d="M 28 8 L 100 8 C 104.417969 8 108 11.582031 108 16 L 108 108 C 108 112.417969 104.417969 116 100 116 L 28 116 C 23.582031 116 20 112.417969 20 108 L 20 16 C 20 11.582031 23.582031 8 28 8 Z M 28 8 "/>
<path style=" stroke:none;fill-rule:nonzero;fill:rgb(23.921569%,21.960784%,27.450982%);fill-opacity:1;" d="M 24 29 L 104 29 L 104 112 L 24 112 Z M 24 29 "/>
<path style=" stroke:none;fill-rule:nonzero;fill:rgb(14.117648%,12.156863%,19.215687%);fill-opacity:1;" d="M 31.980469 14 C 27.546875 14 23.976562 17.566406 23.980469 22 L 24 56 L 104 56 L 103.980469 22 C 103.976562 17.566406 100.414062 14 95.980469 14 Z M 31.980469 14 "/>
<path style=" stroke:none;fill-rule:nonzero;fill:rgb(14.117648%,12.156863%,19.215687%);fill-opacity:1;" d="M 28 12 L 100 12 C 102.210938 12 104 13.789062 104 16 L 104 34 C 104 36.210938 102.210938 38 100 38 L 28 38 C 25.789062 38 24 36.210938 24 34 L 24 16 C 24 13.789062 25.789062 12 28 12 Z M 28 12 "/>
<use xlink:href="#surface6890" mask="url(#mask0)"/>
<use xlink:href="#surface6893" mask="url(#mask1)"/>
<path style=" stroke:none;fill-rule:nonzero;fill:rgb(14.117648%,12.156863%,19.215687%);fill-opacity:1;" d="M 40 64 C 44.96875 64 49 68.03125 49 73 C 49 77.96875 44.96875 82 40 82 C 35.03125 82 31 77.96875 31 73 C 31 68.03125 35.03125 64 40 64 Z M 40 64 "/>
<path style=" stroke:none;fill-rule:nonzero;fill:rgb(60.392159%,60.000002%,58.823532%);fill-opacity:1;" d="M 40 62 C 44.96875 62 49 66.03125 49 71 C 49 75.96875 44.96875 80 40 80 C 35.03125 80 31 75.96875 31 71 C 31 66.03125 35.03125 62 40 62 Z M 40 62 "/>
<path style=" stroke:none;fill-rule:nonzero;fill:rgb(14.117648%,12.156863%,19.215687%);fill-opacity:1;" d="M 62 64 C 66.96875 64 71 68.03125 71 73 C 71 77.96875 66.96875 82 62 82 C 57.03125 82 53 77.96875 53 73 C 53 68.03125 57.03125 64 62 64 Z M 62 64 "/>
<path style=" stroke:none;fill-rule:nonzero;fill:rgb(60.392159%,60.000002%,58.823532%);fill-opacity:1;" d="M 62 62 C 66.96875 62 71 66.03125 71 71 C 71 75.96875 66.96875 80 62 80 C 57.03125 80 53 75.96875 53 71 C 53 66.03125 57.03125 62 62 62 Z M 62 62 "/>
<path style=" stroke:none;fill-rule:nonzero;fill:rgb(14.117648%,12.156863%,19.215687%);fill-opacity:1;" d="M 40 88 C 44.96875 88 49 92.03125 49 97 C 49 101.96875 44.96875 106 40 106 C 35.03125 106 31 101.96875 31 97 C 31 92.03125 35.03125 88 40 88 Z M 40 88 "/>
<path style=" stroke:none;fill-rule:nonzero;fill:rgb(60.392159%,60.000002%,58.823532%);fill-opacity:1;" d="M 40 86 C 44.96875 86 49 90.03125 49 95 C 49 99.96875 44.96875 104 40 104 C 35.03125 104 31 99.96875 31 95 C 31 90.03125 35.03125 86 40 86 Z M 40 86 "/>
<path style=" stroke:none;fill-rule:nonzero;fill:rgb(14.117648%,12.156863%,19.215687%);fill-opacity:1;" d="M 62 88 C 66.96875 88 71 92.03125 71 97 C 71 101.96875 66.96875 106 62 106 C 57.03125 106 53 101.96875 53 97 C 53 92.03125 57.03125 88 62 88 Z M 62 88 "/>
<path style=" stroke:none;fill-rule:nonzero;fill:rgb(60.392159%,60.000002%,58.823532%);fill-opacity:1;" d="M 62 86 C 66.96875 86 71 90.03125 71 95 C 71 99.96875 66.96875 104 62 104 C 57.03125 104 53 99.96875 53 95 C 53 90.03125 57.03125 86 62 86 Z M 62 86 "/>
<path style=" stroke:none;fill-rule:nonzero;fill:rgb(14.117648%,12.156863%,19.215687%);fill-opacity:1;" d="M 79 88 L 93 88 C 94.65625 88 96 89.34375 96 91 L 96 103 C 96 104.65625 94.65625 106 93 106 L 79 106 C 77.34375 106 76 104.65625 76 103 L 76 91 C 76 89.34375 77.34375 88 79 88 Z M 79 88 "/>
<path style=" stroke:none;fill-rule:nonzero;fill:rgb(100%,47.058824%,0%);fill-opacity:1;" d="M 79 62 L 93 62 C 94.65625 62 96 63.34375 96 65 L 96 101 C 96 102.65625 94.65625 104 93 104 L 79 104 C 77.34375 104 76 102.65625 76 101 L 76 65 C 76 63.34375 77.34375 62 79 62 Z M 79 62 "/>
<use xlink:href="#surface6896" mask="url(#mask2)"/>
<path style=" stroke:none;fill-rule:nonzero;fill:rgb(100%,100%,100%);fill-opacity:1;" d="M 45 70 L 45 72 L 35 72 L 35 70 Z M 45 70 "/>
<path style=" stroke:none;fill-rule:nonzero;fill:rgb(100%,100%,100%);fill-opacity:1;" d="M 41 76 L 39 76 L 39 66 L 41 66 Z M 41 76 "/>
<path style=" stroke:none;fill-rule:nonzero;fill:rgb(100%,100%,100%);fill-opacity:1;" d="M 66.242188 73.828125 L 64.828125 75.242188 L 57.757812 68.171875 L 59.171875 66.757812 Z M 66.242188 73.828125 "/>
<path style=" stroke:none;fill-rule:nonzero;fill:rgb(100%,100%,100%);fill-opacity:1;" d="M 59.171875 75.242188 L 57.757812 73.828125 L 64.828125 66.757812 L 66.242188 68.171875 Z M 59.171875 75.242188 "/>
<path style=" stroke:none;fill-rule:nonzero;fill:rgb(100%,100%,100%);fill-opacity:1;" d="M 67 94 L 67 96 L 57 96 L 57 94 Z M 67 94 "/>
<path style=" stroke:none;fill-rule:nonzero;fill:rgb(100%,100%,100%);fill-opacity:1;" d="M 63 100 L 61 100 L 61 98 L 63 98 Z M 63 100 "/>
<path style=" stroke:none;fill-rule:nonzero;fill:rgb(100%,100%,100%);fill-opacity:1;" d="M 63 92 L 61 92 L 61 90 L 63 90 Z M 63 92 "/>
<path style=" stroke:none;fill-rule:nonzero;fill:rgb(100%,100%,100%);fill-opacity:1;" d="M 45 94 L 45 96 L 35 96 L 35 94 Z M 45 94 "/>
<path style=" stroke:none;fill-rule:nonzero;fill:rgb(100%,100%,100%);fill-opacity:1;" d="M 80 80 L 80 82 L 92 82 L 92 80 Z M 80 84 L 80 86 L 92 86 L 92 84 Z M 80 84 "/>
<use xlink:href="#surface6913" mask="url(#mask3)"/>
</g>
</svg>
