<?xml version="1.0" encoding="UTF-8"?>
<svg xmlns="http://www.w3.org/2000/svg" xmlns:xlink="http://www.w3.org/1999/xlink" width="128px" height="128px" viewBox="0 0 128 128" version="1.1">
<defs>
<filter id="alpha" filterUnits="objectBoundingBox" x="0%" y="0%" width="100%" height="100%">
  <feColorMatrix type="matrix" in="SourceGraphic" values="0 0 0 0 1 0 0 0 0 1 0 0 0 0 1 0 0 0 1 0"/>
</filter>
<mask id="mask0">
  <g filter="url(#alpha)">
<rect x="0" y="0" width="128" height="128" style="fill:rgb(0%,0%,0%);fill-opacity:0.1;stroke:none;"/>
  </g>
</mask>
<clipPath id="clip1">
  <rect x="0" y="0" width="128" height="128"/>
</clipPath>
<g id="surface16746" clip-path="url(#clip1)">
<path style=" stroke:none;fill-rule:nonzero;fill:rgb(0%,0%,0%);fill-opacity:1;" d="M 79.960938 82 L 79.960938 86 L 99.960938 86 L 99.960938 82 Z M 79.960938 82 "/>
</g>
<mask id="mask1">
  <g filter="url(#alpha)">
<rect x="0" y="0" width="128" height="128" style="fill:rgb(0%,0%,0%);fill-opacity:0.1;stroke:none;"/>
  </g>
</mask>
<clipPath id="clip2">
  <rect x="0" y="0" width="128" height="128"/>
</clipPath>
<g id="surface16749" clip-path="url(#clip2)">
<path style=" stroke:none;fill-rule:nonzero;fill:rgb(0%,0%,0%);fill-opacity:1;" d="M 79.960938 90 L 79.960938 94 L 99.960938 94 L 99.960938 90 Z M 79.960938 90 "/>
</g>
<mask id="mask2">
  <g filter="url(#alpha)">
<rect x="0" y="0" width="128" height="128" style="fill:rgb(0%,0%,0%);fill-opacity:0.2;stroke:none;"/>
  </g>
</mask>
<clipPath id="clip3">
  <rect x="0" y="0" width="128" height="128"/>
</clipPath>
<g id="surface16752" clip-path="url(#clip3)">
<path style=" stroke:none;fill-rule:nonzero;fill:rgb(0%,0%,0%);fill-opacity:1;" d="M 35.960938 78 L 35.960938 86 L 27.960938 86 L 27.960938 90 L 35.960938 90 L 35.960938 98 L 39.960938 98 L 39.960938 90 L 47.960938 90 L 47.960938 86 L 39.960938 86 L 39.960938 78 Z M 35.960938 78 "/>
</g>
<mask id="mask3">
  <g filter="url(#alpha)">
<rect x="0" y="0" width="128" height="128" style="fill:rgb(0%,0%,0%);fill-opacity:0.1;stroke:none;"/>
  </g>
</mask>
<clipPath id="clip4">
  <rect x="0" y="0" width="128" height="128"/>
</clipPath>
<g id="surface16755" clip-path="url(#clip4)">
<path style=" stroke:none;fill-rule:nonzero;fill:rgb(0%,0%,0%);fill-opacity:1;" d="M 27.960938 38 L 27.960938 42 L 47.960938 42 L 47.960938 38 Z M 27.960938 38 "/>
</g>
<mask id="mask5">
  <g filter="url(#alpha)">
<rect x="0" y="0" width="128" height="128" style="fill:rgb(0%,0%,0%);fill-opacity:0.1;stroke:none;"/>
  </g>
</mask>
<clipPath id="clip7">
  <rect x="0" y="0" width="128" height="128"/>
</clipPath>
<g id="surface16746" clip-path="url(#clip7)">
<path style=" stroke:none;fill-rule:nonzero;fill:rgb(0%,0%,0%);fill-opacity:1;" d="M 79.960938 82 L 79.960938 86 L 99.960938 86 L 99.960938 82 Z M 79.960938 82 "/>
</g>
<mask id="mask6">
  <g filter="url(#alpha)">
<rect x="0" y="0" width="128" height="128" style="fill:rgb(0%,0%,0%);fill-opacity:0.1;stroke:none;"/>
  </g>
</mask>
<clipPath id="clip8">
  <rect x="0" y="0" width="128" height="128"/>
</clipPath>
<g id="surface16749" clip-path="url(#clip8)">
<path style=" stroke:none;fill-rule:nonzero;fill:rgb(0%,0%,0%);fill-opacity:1;" d="M 79.960938 90 L 79.960938 94 L 99.960938 94 L 99.960938 90 Z M 79.960938 90 "/>
</g>
<mask id="mask7">
  <g filter="url(#alpha)">
<rect x="0" y="0" width="128" height="128" style="fill:rgb(0%,0%,0%);fill-opacity:0.2;stroke:none;"/>
  </g>
</mask>
<clipPath id="clip9">
  <rect x="0" y="0" width="128" height="128"/>
</clipPath>
<g id="surface16752" clip-path="url(#clip9)">
<path style=" stroke:none;fill-rule:nonzero;fill:rgb(0%,0%,0%);fill-opacity:1;" d="M 35.960938 78 L 35.960938 86 L 27.960938 86 L 27.960938 90 L 35.960938 90 L 35.960938 98 L 39.960938 98 L 39.960938 90 L 47.960938 90 L 47.960938 86 L 39.960938 86 L 39.960938 78 Z M 35.960938 78 "/>
</g>
<mask id="mask8">
  <g filter="url(#alpha)">
<rect x="0" y="0" width="128" height="128" style="fill:rgb(0%,0%,0%);fill-opacity:0.1;stroke:none;"/>
  </g>
</mask>
<clipPath id="clip10">
  <rect x="0" y="0" width="128" height="128"/>
</clipPath>
<g id="surface16755" clip-path="url(#clip10)">
<path style=" stroke:none;fill-rule:nonzero;fill:rgb(0%,0%,0%);fill-opacity:1;" d="M 27.960938 38 L 27.960938 42 L 47.960938 42 L 47.960938 38 Z M 27.960938 38 "/>
</g>
<clipPath id="clip6">
  <rect x="0" y="0" width="128" height="128"/>
</clipPath>
<g id="surface16776" clip-path="url(#clip6)">
<path style=" stroke:none;fill-rule:nonzero;fill:rgb(77.64706%,27.450982%,0%);fill-opacity:1;" d="M 59.964844 66 L 115.960938 66 L 115.960938 105.875 C 115.960938 111.484375 113.371094 116 107.292969 116 L 59.957031 116 Z M 59.964844 66 "/>
<path style=" stroke:none;fill-rule:nonzero;fill:rgb(100%,47.058824%,0%);fill-opacity:1;" d="M 108 12 C 112.433594 12 116 15.566406 116 20 L 116 104 C 116 108.433594 112.433594 112 108 112 L 60 112 L 60 12 Z M 108 12 "/>
<use xlink:href="#surface16746" mask="url(#mask5)"/>
<use xlink:href="#surface16749" mask="url(#mask6)"/>
<path style=" stroke:none;fill-rule:nonzero;fill:rgb(100%,100%,100%);fill-opacity:1;" d="M 79.960938 80 L 79.960938 84 L 99.960938 84 L 99.960938 80 Z M 79.960938 80 "/>
<path style=" stroke:none;fill-rule:nonzero;fill:rgb(100%,100%,100%);fill-opacity:1;" d="M 79.960938 88 L 79.960938 92 L 99.960938 92 L 99.960938 88 Z M 79.960938 88 "/>
<path style=" stroke:none;fill-rule:nonzero;fill:rgb(36.862746%,36.078432%,39.215687%);fill-opacity:1;" d="M 20 16 C 15.566406 16 12 19.566406 12 24 L 12 108 C 12 112.433594 15.566406 116 20 116 L 64 116 L 64 16 Z M 20 16 "/>
<path style=" stroke:none;fill-rule:nonzero;fill:rgb(46.666667%,46.27451%,48.235294%);fill-opacity:1;" d="M 20 12 C 15.566406 12 12 15.566406 12 20 L 12 104 C 12 108.433594 15.566406 112 20 112 L 64 112 L 64 12 Z M 20 12 "/>
<use xlink:href="#surface16752" mask="url(#mask7)"/>
<path style=" stroke:none;fill-rule:nonzero;fill:rgb(100%,100%,100%);fill-opacity:1;" d="M 35.960938 76 L 35.960938 84 L 27.960938 84 L 27.960938 88 L 35.960938 88 L 35.960938 96 L 39.960938 96 L 39.960938 88 L 47.960938 88 L 47.960938 84 L 39.960938 84 L 39.960938 76 Z M 35.960938 76 "/>
<use xlink:href="#surface16755" mask="url(#mask8)"/>
<path style=" stroke:none;fill-rule:nonzero;fill:rgb(100%,100%,100%);fill-opacity:1;" d="M 27.960938 36 L 27.960938 40 L 47.960938 40 L 47.960938 36 Z M 27.960938 36 "/>
<path style="fill:none;stroke-width:2;stroke-linecap:butt;stroke-linejoin:miter;stroke:rgb(36.862746%,36.078432%,39.215687%);stroke-opacity:1;stroke-miterlimit:4;" d="M -587.999084 234.99999 L -536.038147 234.99999 " transform="matrix(1,0,0,1,599.960022,-171.99999)"/>
</g>
<clipPath id="clip5">
  <rect x="0" y="0" width="128" height="128"/>
</clipPath>
<g id="surface16779" clip-path="url(#clip5)" filter="url(#alpha)">
<use xlink:href="#surface16776"/>
</g>
<mask id="mask4">
<use xlink:href="#surface16779"/>
</mask>
<mask id="mask9">
  <g filter="url(#alpha)">
<rect x="0" y="0" width="128" height="128" style="fill:rgb(0%,0%,0%);fill-opacity:0.8;stroke:none;"/>
  </g>
</mask>
<linearGradient id="linear0" gradientUnits="userSpaceOnUse" x1="300" y1="235" x2="428" y2="235" gradientTransform="matrix(0.000000000000000023,0.37,-0.98462,0.00000000000000006,295.38501,-30.360001)">
<stop offset="0" style="stop-color:rgb(97.647059%,94.117647%,41.960785%);stop-opacity:1;"/>
<stop offset="1" style="stop-color:rgb(96.078432%,76.078433%,6.666667%);stop-opacity:1;"/>
</linearGradient>
<clipPath id="clip12">
  <rect x="0" y="0" width="128" height="128"/>
</clipPath>
<g id="surface16773" clip-path="url(#clip12)">
<path style=" stroke:none;fill-rule:nonzero;fill:url(#linear0);" d="M 128 80.640625 L 128 128 L 0 128 L 0 80.640625 Z M 128 80.640625 "/>
<path style=" stroke:none;fill-rule:nonzero;fill:rgb(0%,0%,0%);fill-opacity:1;" d="M 13.308594 80.640625 L 60.664062 128 L 81.878906 128 L 34.519531 80.640625 Z M 55.730469 80.640625 L 103.09375 128 L 124.308594 128 L 76.945312 80.640625 Z M 98.160156 80.640625 L 128 110.480469 L 128 89.269531 L 119.371094 80.640625 Z M 0 88.546875 L 0 109.761719 L 18.238281 128 L 39.453125 128 Z M 0 88.546875 "/>
</g>
<clipPath id="clip11">
  <rect x="0" y="0" width="128" height="128"/>
</clipPath>
<g id="surface16778" clip-path="url(#clip11)">
<use xlink:href="#surface16773" mask="url(#mask9)"/>
</g>
</defs>
<g id="surface16712">
<path style=" stroke:none;fill-rule:nonzero;fill:rgb(77.64706%,27.450982%,0%);fill-opacity:1;" d="M 59.964844 66 L 115.960938 66 L 115.960938 105.875 C 115.960938 111.484375 113.371094 116 107.292969 116 L 59.957031 116 Z M 59.964844 66 "/>
<path style=" stroke:none;fill-rule:nonzero;fill:rgb(100%,47.058824%,0%);fill-opacity:1;" d="M 108 12 C 112.433594 12 116 15.566406 116 20 L 116 104 C 116 108.433594 112.433594 112 108 112 L 60 112 L 60 12 Z M 108 12 "/>
<use xlink:href="#surface16746" mask="url(#mask0)"/>
<use xlink:href="#surface16749" mask="url(#mask1)"/>
<path style=" stroke:none;fill-rule:nonzero;fill:rgb(100%,100%,100%);fill-opacity:1;" d="M 79.960938 80 L 79.960938 84 L 99.960938 84 L 99.960938 80 Z M 79.960938 80 "/>
<path style=" stroke:none;fill-rule:nonzero;fill:rgb(100%,100%,100%);fill-opacity:1;" d="M 79.960938 88 L 79.960938 92 L 99.960938 92 L 99.960938 88 Z M 79.960938 88 "/>
<path style=" stroke:none;fill-rule:nonzero;fill:rgb(36.862746%,36.078432%,39.215687%);fill-opacity:1;" d="M 20 16 C 15.566406 16 12 19.566406 12 24 L 12 108 C 12 112.433594 15.566406 116 20 116 L 64 116 L 64 16 Z M 20 16 "/>
<path style=" stroke:none;fill-rule:nonzero;fill:rgb(46.666667%,46.27451%,48.235294%);fill-opacity:1;" d="M 20 12 C 15.566406 12 12 15.566406 12 20 L 12 104 C 12 108.433594 15.566406 112 20 112 L 64 112 L 64 12 Z M 20 12 "/>
<use xlink:href="#surface16752" mask="url(#mask2)"/>
<path style=" stroke:none;fill-rule:nonzero;fill:rgb(100%,100%,100%);fill-opacity:1;" d="M 35.960938 76 L 35.960938 84 L 27.960938 84 L 27.960938 88 L 35.960938 88 L 35.960938 96 L 39.960938 96 L 39.960938 88 L 47.960938 88 L 47.960938 84 L 39.960938 84 L 39.960938 76 Z M 35.960938 76 "/>
<use xlink:href="#surface16755" mask="url(#mask3)"/>
<path style=" stroke:none;fill-rule:nonzero;fill:rgb(100%,100%,100%);fill-opacity:1;" d="M 27.960938 36 L 27.960938 40 L 47.960938 40 L 47.960938 36 Z M 27.960938 36 "/>
<path style="fill:none;stroke-width:2;stroke-linecap:butt;stroke-linejoin:miter;stroke:rgb(36.862746%,36.078432%,39.215687%);stroke-opacity:1;stroke-miterlimit:4;" d="M -587.999084 234.99999 L -536.038147 234.99999 " transform="matrix(1,0,0,1,599.960022,-171.99999)"/>
<use xlink:href="#surface16778" mask="url(#mask4)"/>
</g>
</svg>
