<svg xmlns="http://www.w3.org/2000/svg" xmlns:xlink="http://www.w3.org/1999/xlink" width="128" height="128"><defs><clipPath id="b"><path d="M0 0h128v128H0z"/></clipPath><clipPath id="c"><path d="M0 0h128v128H0z"/></clipPath><mask id="f"><g filter="url(#a)"><path fill-opacity=".7" d="M0 0h128v128H0z"/></g></mask><mask id="h"><g filter="url(#a)"><path fill-opacity=".4" d="M0 0h128v128H0z"/></g></mask><g id="e" clip-path="url(#b)"><path d="M40 24h48c2.21 0 4 1.79 4 4v10c0 2.21-1.79 4-4 4H40c-2.21 0-4-1.79-4-4V28c0-2.21 1.79-4 4-4zm0 0" fill="#8ff0a4"/></g><g id="g" clip-path="url(#c)"><path d="M40 24c-2.215 0-4 1.785-4 4v2c0-2.215 1.785-4 4-4h48c2.215 0 4 1.785 4 4v-2c0-2.215-1.785-4-4-4zm0 0" fill="#241f31"/></g><linearGradient id="d" gradientUnits="userSpaceOnUse" x1="48" y1="204" x2="426.276" y2="204" gradientTransform="matrix(.21154 0 0 .25 13.826 57)"><stop offset="0" stop-color="#9a9996"/><stop offset=".045" stop-color="#c0bfbc"/><stop offset=".091" stop-color="#9a9996"/><stop offset=".909" stop-color="#9a9996"/><stop offset=".955" stop-color="#c0bfbc"/><stop offset="1" stop-color="#9a9996"/></linearGradient><filter id="a" filterUnits="objectBoundingBox" x="0%" y="0%" width="100%" height="100%"><feColorMatrix in="SourceGraphic" values="0 0 0 0 1 0 0 0 0 1 0 0 0 0 1 0 0 0 1 0"/></filter></defs><path d="M31.98 36H96a8 8 0 018 8v68a8 8 0 01-8 8H31.98a8 8 0 01-8-8V44a8 8 0 018-8zm0 0" fill="url(#d)"/><path d="M31.98 12H96a8 8 0 018 8v88a8 8 0 01-8 8H31.98a8 8 0 01-8-8V20a8 8 0 018-8zm0 0" fill="#deddda"/><path d="M40 24h48c2.21 0 4 1.79 4 4v10c0 2.21-1.79 4-4 4H40c-2.21 0-4-1.79-4-4V28c0-2.21 1.79-4 4-4zm0 0" fill="#241f31"/><use xlink:href="#e" mask="url(#f)"/><path d="M36 57v2c0 3.879 3.121 7 7 7s7-3.121 7-7v-2zm0 0" fill="#5e5c64"/><path d="M43 50c3.867 0 7 3.133 7 7s-3.133 7-7 7-7-3.133-7-7 3.133-7 7-7zm0 0" fill="#9a9996"/><path d="M57 57v2c0 3.879 3.121 7 7 7s7-3.121 7-7v-2zm0 0" fill="#5e5c64"/><path d="M63.988 50c3.867 0 7 3.133 7 7s-3.133 7-7 7a7.001 7.001 0 010-14zm0 0" fill="#9a9996"/><path d="M78 57v2c0 3.879 3.121 7 7 7s7-3.121 7-7v-2zm0 0" fill="#5e5c64"/><path d="M85 50c3.867 0 7 3.133 7 7s-3.133 7-7 7-7-3.133-7-7 3.133-7 7-7zm0 0" fill="#9a9996"/><path d="M36 77v2c0 3.879 3.121 7 7 7s7-3.121 7-7v-2zm0 0M57 77v2c0 3.879 3.121 7 7 7s7-3.121 7-7v-2zm0 0" fill="#3d3846"/><path d="M43 70c3.867 0 7 3.133 7 7s-3.133 7-7 7-7-3.133-7-7 3.133-7 7-7zm0 0M63.988 70c3.867 0 7 3.133 7 7s-3.133 7-7 7a7.001 7.001 0 010-14zm0 0" fill="#5e5c64"/><path d="M85 70c3.867 0 7 3.133 7 7s-3.133 7-7 7-7-3.133-7-7 3.133-7 7-7zm0 0" fill="#ff7800"/><path d="M36 97v2c0 3.879 3.121 7 7 7s7-3.121 7-7v-2zm0 0" fill="#3d3846"/><path d="M43 90c3.867 0 7 3.133 7 7s-3.133 7-7 7-7-3.133-7-7 3.133-7 7-7zm0 0" fill="#5e5c64"/><path d="M57 97v2c0 3.879 3.121 7 7 7s7-3.121 7-7v-2zm0 0" fill="#3d3846"/><path d="M63.988 90c3.867 0 7 3.133 7 7s-3.133 7-7 7a7.001 7.001 0 010-14zm0 0" fill="#5e5c64"/><path d="M85 88c3.867 0 7 3.133 7 7v4c0 3.867-3.133 7-7 7s-7-3.133-7-7v-4c0-3.867 3.133-7 7-7zm0 0" fill="#c64600"/><path d="M85 90c3.867 0 7 3.133 7 7s-3.133 7-7 7-7-3.133-7-7 3.133-7 7-7zm0 0" fill="#ff7800"/><path d="M78 77h14v21H78zm0 0" fill="#ff7800"/><use xlink:href="#g" mask="url(#h)"/></svg>