<svg xmlns="http://www.w3.org/2000/svg" xmlns:xlink="http://www.w3.org/1999/xlink" width="128" height="128"><defs><clipPath id="d"><path d="M0 0h128v128H0z"/></clipPath><clipPath id="e"><path d="M0 0h128v128H0z"/></clipPath><clipPath id="b"><path d="M0 0h128v128H0z"/></clipPath><clipPath id="l"><path d="M0 0h128v128H0z"/></clipPath><clipPath id="c"><path d="M0 0h128v128H0z"/></clipPath><clipPath id="q"><path d="M0 0h128v128H0z"/></clipPath><clipPath id="f"><path d="M0 0h128v128H0z"/></clipPath><clipPath id="o"><path d="M0 0h128v128H0z"/></clipPath><mask id="u"><g filter="url(#a)"><path fill-opacity=".7" d="M0 0h128v128H0z"/></g></mask><mask id="k"><g filter="url(#a)"><path fill-opacity=".4" d="M0 0h128v128H0z"/></g></mask><mask id="i"><g filter="url(#a)"><path fill-opacity=".7" d="M0 0h128v128H0z"/></g></mask><mask id="v"><g filter="url(#a)"><path fill-opacity=".4" d="M0 0h128v128H0z"/></g></mask><mask id="x"><use xlink:href="#n"/></mask><mask id="s"><g filter="url(#a)"><path fill-opacity=".8" d="M0 0h128v128H0z"/></g></mask><g id="m" clip-path="url(#f)"><path d="M31.98 36H96a8 8 0 018 8v68a8 8 0 01-8 8H31.98a8 8 0 01-8-8V44a8 8 0 018-8zm0 0" fill="url(#g)"/><path d="M31.98 12H96a8 8 0 018 8v88a8 8 0 01-8 8H31.98a8 8 0 01-8-8V20a8 8 0 018-8zm0 0" fill="#deddda"/><path d="M40 24h48c2.21 0 4 1.79 4 4v10c0 2.21-1.79 4-4 4H40c-2.21 0-4-1.79-4-4V28c0-2.21 1.79-4 4-4zm0 0" fill="#241f31"/><use xlink:href="#h" mask="url(#i)"/><path d="M36 57v2c0 3.879 3.121 7 7 7s7-3.121 7-7v-2zm0 0" fill="#5e5c64"/><path d="M43 50c3.867 0 7 3.133 7 7s-3.133 7-7 7-7-3.133-7-7 3.133-7 7-7zm0 0" fill="#9a9996"/><path d="M57 57v2c0 3.879 3.121 7 7 7s7-3.121 7-7v-2zm0 0" fill="#5e5c64"/><path d="M63.988 50c3.867 0 7 3.133 7 7s-3.133 7-7 7a7.001 7.001 0 010-14zm0 0" fill="#9a9996"/><path d="M78 57v2c0 3.879 3.121 7 7 7s7-3.121 7-7v-2zm0 0" fill="#5e5c64"/><path d="M85 50c3.867 0 7 3.133 7 7s-3.133 7-7 7-7-3.133-7-7 3.133-7 7-7zm0 0" fill="#9a9996"/><path d="M36 77v2c0 3.879 3.121 7 7 7s7-3.121 7-7v-2zm0 0M57 77v2c0 3.879 3.121 7 7 7s7-3.121 7-7v-2zm0 0" fill="#3d3846"/><path d="M43 70c3.867 0 7 3.133 7 7s-3.133 7-7 7-7-3.133-7-7 3.133-7 7-7zm0 0M63.988 70c3.867 0 7 3.133 7 7s-3.133 7-7 7a7.001 7.001 0 010-14zm0 0" fill="#5e5c64"/><path d="M85 70c3.867 0 7 3.133 7 7s-3.133 7-7 7-7-3.133-7-7 3.133-7 7-7zm0 0" fill="#ff7800"/><path d="M36 97v2c0 3.879 3.121 7 7 7s7-3.121 7-7v-2zm0 0" fill="#3d3846"/><path d="M43 90c3.867 0 7 3.133 7 7s-3.133 7-7 7-7-3.133-7-7 3.133-7 7-7zm0 0" fill="#5e5c64"/><path d="M57 97v2c0 3.879 3.121 7 7 7s7-3.121 7-7v-2zm0 0" fill="#3d3846"/><path d="M63.988 90c3.867 0 7 3.133 7 7s-3.133 7-7 7a7.001 7.001 0 010-14zm0 0" fill="#5e5c64"/><path d="M85 88c3.867 0 7 3.133 7 7v4c0 3.867-3.133 7-7 7s-7-3.133-7-7v-4c0-3.867 3.133-7 7-7zm0 0" fill="#c64600"/><path d="M85 90c3.867 0 7 3.133 7 7s-3.133 7-7 7-7-3.133-7-7 3.133-7 7-7zm0 0" fill="#ff7800"/><path d="M78 77h14v21H78zm0 0" fill="#ff7800"/><use xlink:href="#j" mask="url(#k)"/></g><g id="j" clip-path="url(#c)"><path d="M40 24c-2.215 0-4 1.785-4 4v2c0-2.215 1.785-4 4-4h48c2.215 0 4 1.785 4 4v-2c0-2.215-1.785-4-4-4zm0 0" fill="#241f31"/></g><g id="n" clip-path="url(#l)" filter="url(#a)"><use xlink:href="#m"/></g><g id="w" clip-path="url(#q)"><use xlink:href="#r" mask="url(#s)"/></g><g id="r" clip-path="url(#o)"><path d="M128 80.64V128H0V80.64zm0 0" fill="url(#p)"/><path d="M13.309 80.64L60.664 128H81.88l-47.36-47.36zm42.421 0L103.094 128h21.215L76.945 80.64zm42.43 0L128 110.48V89.27l-8.629-8.63zM0 88.548v21.215L18.238 128h21.215zm0 0"/></g><g id="h" clip-path="url(#b)"><path d="M40 24h48c2.21 0 4 1.79 4 4v10c0 2.21-1.79 4-4 4H40c-2.21 0-4-1.79-4-4V28c0-2.21 1.79-4 4-4zm0 0" fill="#8ff0a4"/></g><linearGradient id="p" gradientUnits="userSpaceOnUse" x1="300" y1="235" x2="428" y2="235" gradientTransform="matrix(0 .37 -.98462 0 295.385 -30.36)"><stop offset="0" stop-color="#f9f06b"/><stop offset="1" stop-color="#f5c211"/></linearGradient><linearGradient id="g" gradientUnits="userSpaceOnUse" x1="48" y1="204" x2="426.276" y2="204" gradientTransform="matrix(.21154 0 0 .25 13.826 57)"><stop offset="0" stop-color="#9a9996"/><stop offset=".045" stop-color="#c0bfbc"/><stop offset=".091" stop-color="#9a9996"/><stop offset=".909" stop-color="#9a9996"/><stop offset=".955" stop-color="#c0bfbc"/><stop offset="1" stop-color="#9a9996"/></linearGradient><linearGradient id="t" gradientUnits="userSpaceOnUse" x1="48" y1="204" x2="426.276" y2="204" gradientTransform="matrix(.21154 0 0 .25 13.826 57)"><stop offset="0" stop-color="#9a9996"/><stop offset=".045" stop-color="#c0bfbc"/><stop offset=".091" stop-color="#9a9996"/><stop offset=".909" stop-color="#9a9996"/><stop offset=".955" stop-color="#c0bfbc"/><stop offset="1" stop-color="#9a9996"/></linearGradient><filter id="a" filterUnits="objectBoundingBox" x="0%" y="0%" width="100%" height="100%"><feColorMatrix in="SourceGraphic" values="0 0 0 0 1 0 0 0 0 1 0 0 0 0 1 0 0 0 1 0"/></filter></defs><path d="M31.98 36H96a8 8 0 018 8v68a8 8 0 01-8 8H31.98a8 8 0 01-8-8V44a8 8 0 018-8zm0 0" fill="url(#t)"/><path d="M31.98 12H96a8 8 0 018 8v88a8 8 0 01-8 8H31.98a8 8 0 01-8-8V20a8 8 0 018-8zm0 0" fill="#deddda"/><path d="M40 24h48c2.21 0 4 1.79 4 4v10c0 2.21-1.79 4-4 4H40c-2.21 0-4-1.79-4-4V28c0-2.21 1.79-4 4-4zm0 0" fill="#241f31"/><use xlink:href="#h" mask="url(#u)"/><path d="M36 57v2c0 3.879 3.121 7 7 7s7-3.121 7-7v-2zm0 0" fill="#5e5c64"/><path d="M43 50c3.867 0 7 3.133 7 7s-3.133 7-7 7-7-3.133-7-7 3.133-7 7-7zm0 0" fill="#9a9996"/><path d="M57 57v2c0 3.879 3.121 7 7 7s7-3.121 7-7v-2zm0 0" fill="#5e5c64"/><path d="M63.988 50c3.867 0 7 3.133 7 7s-3.133 7-7 7a7.001 7.001 0 010-14zm0 0" fill="#9a9996"/><path d="M78 57v2c0 3.879 3.121 7 7 7s7-3.121 7-7v-2zm0 0" fill="#5e5c64"/><path d="M85 50c3.867 0 7 3.133 7 7s-3.133 7-7 7-7-3.133-7-7 3.133-7 7-7zm0 0" fill="#9a9996"/><path d="M36 77v2c0 3.879 3.121 7 7 7s7-3.121 7-7v-2zm0 0M57 77v2c0 3.879 3.121 7 7 7s7-3.121 7-7v-2zm0 0" fill="#3d3846"/><path d="M43 70c3.867 0 7 3.133 7 7s-3.133 7-7 7-7-3.133-7-7 3.133-7 7-7zm0 0M63.988 70c3.867 0 7 3.133 7 7s-3.133 7-7 7a7.001 7.001 0 010-14zm0 0" fill="#5e5c64"/><path d="M85 70c3.867 0 7 3.133 7 7s-3.133 7-7 7-7-3.133-7-7 3.133-7 7-7zm0 0" fill="#ff7800"/><path d="M36 97v2c0 3.879 3.121 7 7 7s7-3.121 7-7v-2zm0 0" fill="#3d3846"/><path d="M43 90c3.867 0 7 3.133 7 7s-3.133 7-7 7-7-3.133-7-7 3.133-7 7-7zm0 0" fill="#5e5c64"/><path d="M57 97v2c0 3.879 3.121 7 7 7s7-3.121 7-7v-2zm0 0" fill="#3d3846"/><path d="M63.988 90c3.867 0 7 3.133 7 7s-3.133 7-7 7a7.001 7.001 0 010-14zm0 0" fill="#5e5c64"/><path d="M85 88c3.867 0 7 3.133 7 7v4c0 3.867-3.133 7-7 7s-7-3.133-7-7v-4c0-3.867 3.133-7 7-7zm0 0" fill="#c64600"/><path d="M85 90c3.867 0 7 3.133 7 7s-3.133 7-7 7-7-3.133-7-7 3.133-7 7-7zm0 0" fill="#ff7800"/><path d="M78 77h14v21H78zm0 0" fill="#ff7800"/><use xlink:href="#j" mask="url(#v)"/><use xlink:href="#w" mask="url(#x)"/></svg>